<svg version="1.1" id="Layer_1" xmlns="http://www.w3.org/2000/svg" xmlns:xlink="http://www.w3.org/1999/xlink" x="0px" y="0px"
	 viewBox="0 0 550.8 357.3" style="enable-background:new 0 0 550.8 357.3;" xml:space="preserve">
<path fill="#fff" d="M383.3,347.5c-2.6,0-4.9-0.8-7-2.4c-7.6-5.7-9.7-19.8-10-22.5c0-0.2-0.1-0.5-0.1-0.7
	c-12.4-61.9-44.5-223.1-45-225.2c0-0.2-0.1-0.5-0.2-1c-3.8-18.8-10.8-23.7-16-24.5c-5.6-0.9-9.7,1-12,5.6c-1,1.9-1.5,4.1-1.5,6.5
	l-1,205.3c0,4-1.8,7.8-4.7,10.1c-2.1,1.6-4.4,2.3-6.7,1.9c-3.9-0.6-8-3.9-12.1-10c-6.3-9.1-14.7-46.2-24.5-89.2
	c-11.8-51.9-25.2-110.6-35.6-119.8c-4.4-3.9-8.3-5.5-11.5-4.8c-2.9,0.7-5.3,3.3-7.2,7.7c-1.6,3.8-2.3,8-2,12.5
	c0.7,14.1,2.5,50.6,2.2,85.4c-0.5,68-8.1,71.5-10.7,72.6c-3.5,1.6-7,1.6-10.2,0.1c-9.6-4.4-14.9-20.5-16.3-25.3
	c-0.1-0.5-0.3-1-0.5-1.4c-6-13.6-59.1-133-66.6-150.9c-3.9-9.3-8-12.5-10.7-13.5s-4.6-0.1-4.7,0c-2,0.9-5.6,5.2-7.4,24.7
	c-1,11.1-0.9,22.6,0.4,34.3c4.6,41.2,14,138.5,1.8,150.9c-1.1,1.1-2.4,1.6-3.7,1.5C39.5,273.6-1.3,171.7-3,167.3l1.8-0.7
	c14.5,36.4,45.8,105.5,61,106.9c0.8,0.1,1.5-0.2,2.2-0.9c11.9-12.1,1.2-117.3-2.4-149.3c-1.3-11.8-1.5-23.5-0.4-34.7
	c1.5-15.9,4.3-24.4,8.6-26.3c0,0,2.6-1.3,6.1-0.1c4.5,1.6,8.6,6.5,11.9,14.6c7.5,17.8,60.6,137.3,66.6,150.8
	c0.2,0.5,0.5,1.1,0.6,1.7c1,3.3,6.2,19.9,15.3,24.1c2.8,1.3,5.6,1.3,8.6-0.1c11.2-5,10.9-87.2,7.3-156.1c-0.3-4.8,0.5-9.2,2.2-13.3
	c2.1-5.1,5-8.1,8.5-8.9c3.8-0.9,8.3,0.9,13.2,5.3c10.8,9.6,23.7,66.1,36.2,120.8c9.3,41,18.2,79.7,24.2,88.5
	c3.8,5.5,7.4,8.6,10.7,9.1c1.8,0.3,3.6-0.2,5.2-1.5c2.5-1.9,3.9-5.1,4-8.5l1-205.3c0-2.7,0.6-5.2,1.7-7.4c1.9-3.7,5.9-7.9,14.1-6.7
	c5.8,0.9,13.7,6.2,17.7,26.1c0.1,0.4,0.1,0.7,0.2,0.9c0.5,2,44.6,223,45.1,225.3c0.1,0.3,0.1,0.6,0.1,0.8c0.2,1.6,2.2,15.9,9.3,21.2
	c2.2,1.7,4.8,2.3,7.6,1.9h0.1h0.1c0,0,1.4,0.1,2.8-1.5c1.8-2,4.3-7.7,1.5-23.7c-4.6-27-34.2-270.8-34.5-273.3
	c-0.2-1-4-24.7,6.5-33.8c4.3-3.7,10.3-4.4,17.8-2.1c1.6,0.2,16.7,3,19.7,33.7c2.8,28.3,23,176.2,27.1,205.6c0.7,5,2.2,9.6,4.4,13.6
	c2.5,4.6,5.5,7.4,8.4,8.1c2.1,0.5,4.3,0.1,6.6-1.3c2.5-1.5,7.5-12.3,0.9-78.5c-3.7-37.9-9.7-76.7-11.8-83.3
	c-1.4-4.6-8.1-27.8-0.4-37c2.5-3,6.1-4.1,10.9-3.5c17.4,2.2,21.4,31,24.4,52c0.4,2.7,0.8,5.3,1.1,7.7c2.6,16.7,14,94,18.8,126.5
	c1.9,12.6,5.6,24.5,11.2,35.4c4,7.8,7.7,12.6,10.8,14c3.2,1.5,5.9,1.5,8.1,0c3.4-2.2,5.4-7.9,5.3-14.7c-0.2-8.4-12-100.9-17.1-140.3
	c0-0.4-4.6-36.4,1.6-59.5c2-7.4,7.1-13.5,14.1-16.7c6.7-3.1,14.2-3.1,20.8,0c6,2.8,9.2,7.3,9.6,13.3l-2,0.1
	c-0.3-5.3-3.2-9.2-8.5-11.6c-6-2.8-13-2.8-19.1,0c-6.4,3-11.1,8.6-13,15.4c-6.2,22.7-1.6,58.4-1.6,58.7
	c5.1,39.4,16.9,132,17.1,140.5c0.2,7.6-2.1,13.8-6.1,16.4c-1.9,1.3-5.3,2.3-10,0.1c-3.6-1.6-7.5-6.7-11.7-14.9
	c-5.6-11.1-9.5-23.2-11.4-36c-4.8-32.5-16.2-109.8-18.8-126.4c-0.4-2.4-0.7-5-1.1-7.8c-2.9-20.4-6.8-48.3-22.7-50.3
	c-4.1-0.5-7,0.4-9.1,2.8c-5.5,6.5-3,23,0.8,35.2c2.1,6.8,8.1,45,11.9,83.7c4.9,49.5,4.3,76.6-1.9,80.4c-2.8,1.7-5.5,2.3-8.1,1.6
	c-3.5-0.9-6.8-4-9.6-9.1c-2.4-4.3-3.9-9.1-4.7-14.3c-4-29.4-24.3-177.4-27.1-205.6c-2.9-29.9-17.9-31.9-18-32h-0.2
	c-6.9-2.2-12.3-1.6-16,1.7c-9.6,8.4-5.9,31.8-5.8,32.1c0.3,2.5,29.8,246.3,34.5,273.2c2.2,13,1.5,21.5-2.1,25.5
	c-1.8,1.9-3.6,2-4.2,2C384.6,347.5,384,347.5,383.3,347.5z"/>
</svg>
