<svg width="59" height="83" viewBox="0 0 59 83" fill="none" xmlns="http://www.w3.org/2000/svg">
<path d="M25.4295 76.2736L35.6721 70.3472L60.0133 56.1964V45.4322L26.273 65.0256L16.0304 70.9519L5.78782 65.0256L0.967773 62.1228V45.3112L11.2104 39.3848L60.0133 11.0833L70.2559 5.15692V16.8888L60.0133 22.8151L11.2104 51.2376V56.1964L16.1509 59.0992L60.0133 33.7003L70.2559 27.774V62.1228L35.5516 82.2L25.4295 76.2736ZM0.967773 0.077158L35.5516 -20L45.7942 -14.0736L35.5516 -8.14722L11.2104 6.00355V16.8888L44.9507 -2.70462L55.1933 -8.63101L65.4359 -2.70462L55.1933 3.22177L11.2104 28.6206L0.967773 34.426V0.077158Z" fill="url(#paint0_linear_928_3734)"/>
<defs>
<linearGradient id="paint0_linear_928_3734" x1="0.219496" y1="-18.8917" x2="95.1186" y2="45.4234" gradientUnits="userSpaceOnUse">
<stop stop-color="#EA6913"/>
<stop offset="0.455" stop-color="#FEB801"/>
<stop offset="1" stop-color="#FFBC00"/>
</linearGradient>
</defs>
</svg>
