<svg width="74" height="55" viewBox="0 0 74 55" fill="none" xmlns="http://www.w3.org/2000/svg">
<g>
<path d="M2.9711 37.0404C2.9711 37.0404 -2.64614 29.0792 1.56679 19.1918C1.56679 19.1918 4.63074 12.7715 9.99265 14.9544C9.99265 14.9544 8.46068 3.01257 18.4185 2.24213C28.504 1.6001 27.6104 11.7442 27.738 13.1567L27.8657 17.3941L29.1423 8.79088C29.1423 8.79088 30.036 -0.839627 39.1002 0.0592206C48.0367 0.958068 47.2707 9.0477 47.2707 9.0477L46.377 17.2657C46.377 17.2657 47.909 7.63522 53.3986 6.60797C59.0158 5.58071 61.1861 9.43291 61.1861 9.43291C61.1861 9.43291 63.4841 11.7442 61.8245 17.3941C61.8245 17.3941 65.9097 12.3863 70.8886 14.826C75.8676 17.2657 72.8036 26.2542 72.8036 26.2542C72.8036 26.2542 69.8673 38.7097 61.8245 40.7642C61.8245 40.7642 59.1435 41.5346 56.4625 39.2233C56.4625 39.2233 53.6539 48.9822 48.0367 48.597C42.4194 48.0834 42.5471 41.4062 42.5471 41.4062V39.3517C42.5471 39.3517 39.9938 53.6049 33.3553 54.8889C26.589 56.173 26.3337 45.9004 26.3337 45.9004C26.3337 45.9004 24.1634 51.6788 19.3122 51.2935C14.4609 50.9083 13.3119 45.772 13.3119 45.772L11.78 39.4801C11.9076 39.2233 7.31169 42.8187 2.9711 37.0404Z" fill="#FFFFFF"/>
</g>
</svg>
