<svg width="26" height="26" viewBox="0 0 26 26" fill="none" xmlns="http://www.w3.org/2000/svg">
<path d="M20.9087 18.3087C21.342 17.5503 21.667 16.6837 21.667 15.7087C21.667 13.0003 19.5003 10.8337 16.792 10.8337C14.0837 10.8337 11.917 13.0003 11.917 15.7087C11.917 18.417 14.0837 20.5837 16.792 20.5837C17.767 20.5837 18.6337 20.2587 19.392 19.8253L22.8587 23.292L24.3753 21.7753L20.9087 18.3087ZM16.792 18.417C15.2753 18.417 14.0837 17.2253 14.0837 15.7087C14.0837 14.192 15.2753 13.0003 16.792 13.0003C18.3087 13.0003 19.5003 14.192 19.5003 15.7087C19.5003 17.2253 18.3087 18.417 16.792 18.417ZM13.0003 21.667V23.8337C7.02033 23.8337 2.16699 18.9803 2.16699 13.0003C2.16699 7.02033 7.02033 2.16699 13.0003 2.16699C18.2437 2.16699 22.6095 5.89366 23.617 10.8337H21.3745C20.6812 8.16866 18.7745 5.99116 16.2503 4.97283V5.41699C16.2503 6.60866 15.2753 7.58366 14.0837 7.58366H11.917V9.75033C11.917 10.3462 11.4295 10.8337 10.8337 10.8337H8.66699V13.0003H10.8337V16.2503H9.75033L4.56116 11.0612C4.42033 11.6895 4.33366 12.3287 4.33366 13.0003C4.33366 17.7778 8.22283 21.667 13.0003 21.667Z" fill="#FBFBFB"/>
</svg>
