<svg width="20" height="22" viewBox="0 0 20 22" fill="none" xmlns="http://www.w3.org/2000/svg">
<path fill-rule="evenodd" clip-rule="evenodd" d="M10.7201 1.06416C10.359 0.783299 9.85336 0.783299 9.49224 1.06416L0.940747 7.71533C0.69716 7.90479 0.554688 8.19609 0.554688 8.50468V18.9565C0.554688 19.7257 0.860257 20.4634 1.40418 21.0074C1.94809 21.5513 2.6858 21.8568 3.45502 21.8568H7.24591C7.24906 21.8569 7.25221 21.8569 7.25537 21.8569C7.25853 21.8569 7.26168 21.8569 7.26484 21.8568H12.9469C12.9501 21.8569 12.9532 21.8569 12.9564 21.8569C12.9595 21.8569 12.9627 21.8569 12.9658 21.8568H16.7574C17.5266 21.8568 18.2643 21.5513 18.8082 21.0074C19.3521 20.4634 19.6577 19.7257 19.6577 18.9565V8.50468C19.6577 8.19609 19.5152 7.90479 19.2716 7.71533L10.7201 1.06416ZM13.9564 19.8568H16.7574C16.9961 19.8568 17.2251 19.762 17.394 19.5931C17.5628 19.4243 17.6577 19.1953 17.6577 18.9565V8.99376L10.1062 3.12038L2.55469 8.99376V18.9565C2.55469 19.1953 2.64954 19.4243 2.81839 19.5931C2.98723 19.762 3.21624 19.8568 3.45502 19.8568H6.25537V11.3552C6.25537 10.8029 6.70309 10.3552 7.25537 10.3552H12.9564C13.5087 10.3552 13.9564 10.8029 13.9564 11.3552V19.8568ZM8.25537 19.8568H11.9564V12.3552H8.25537V19.8568Z" fill="#FBFBFB"/>
</svg>
