<svg width="198" height="53" viewBox="0 0 198 53" fill="none" xmlns="http://www.w3.org/2000/svg">
<g clip-path="url(#clip0_928_3487)">
<path d="M42.5884 13.8616C42.5884 7.21307 46.289 5.64502 52.5612 5.64502H60.715C70.6251 5.64502 71.8795 7.77756 71.8168 14.1752H64.8547V13.548C64.8547 11.9172 63.6629 11.4154 61.5931 11.4154H54.0665C50.4286 11.4154 49.676 13.1716 49.676 15.9941V18.503C49.676 21.7645 50.3659 23.0817 53.6902 23.0817H61.0913C64.2274 23.0817 65.1683 22.7681 65.1683 19.9456H72.1304V22.0782C72.1304 25.9042 70.7505 28.8521 63.7884 28.8521H52.6239C46.3517 28.8521 42.6511 27.2841 42.6511 20.6356L42.5884 13.8616Z" fill="#EEEEEE"/>
<path d="M75.2661 5.9585H82.2282V14.0496H96.8424V5.9585H103.805V28.6011H96.8424V20.0082H82.2282V28.6011H75.2661V5.9585Z" fill="#EEEEEE"/>
<path d="M118.105 5.9585H127.137L139.619 28.6011H131.904L129.772 24.5869H115.722L113.715 28.6011H105.875L118.105 5.9585ZM118.231 19.7573H127.137L122.621 11.2271L118.231 19.7573Z" fill="#EEEEEE"/>
<path d="M141.187 21.2H148.149C148.212 23.5835 149.152 23.7716 151.16 23.7716H159.69C161.132 23.7716 162.638 23.6462 162.638 21.8273C162.638 19.8829 161.822 19.6947 152.853 19.6947C142.378 19.6947 141.187 18.4403 141.187 12.9208C141.187 8.84384 141.563 5.64502 150.344 5.64502H160.066C168.094 5.64502 168.847 8.34206 168.847 12.3563V13.0462H161.885C161.885 11.4154 161.697 10.7255 158.498 10.7255H150.783C149.215 10.7255 148.149 11.2273 148.149 12.4817C148.149 14.4261 148.964 14.4888 156.428 14.4888C167.216 14.4261 169.725 15.116 169.725 21.7018C169.725 27.7858 167.655 28.8521 158.435 28.8521H149.968C143.633 28.8521 141.124 27.6604 141.124 22.7681L141.187 21.2Z" fill="#EEEEEE"/>
<path d="M172.36 5.9585H197.135V11.2271H179.322V14.865H196.194V19.5691H179.322V23.207H197.574V28.6638H172.36V5.9585Z" fill="#EEEEEE"/>
<path d="M43.7173 42.0234H47.7315C47.7315 43.4033 48.296 43.5288 49.4877 43.5288H54.4427C55.2581 43.5288 56.1989 43.466 56.1989 42.3998C56.1989 41.2708 55.7599 41.208 50.554 41.208C44.4699 41.208 43.8427 40.5181 43.8427 37.2566C43.8427 34.8731 44.0936 33.0542 49.1741 33.0542H54.8191C59.4605 33.0542 59.8995 34.6222 59.8995 36.943V37.382H55.8226C55.8226 36.4412 55.7599 36.0021 53.8782 36.0021H49.425C48.5469 36.0021 47.9197 36.3157 47.9197 37.0057C47.9197 38.1347 48.3587 38.1974 52.6865 38.1974C58.9587 38.1974 60.4013 38.5737 60.4013 42.3998C60.4013 45.9122 59.2096 46.5394 53.8782 46.5394H48.9232C45.2853 46.5394 43.78 45.8495 43.78 43.027V42.0234H43.7173Z" fill="#EEEEEE"/>
<path d="M62.5337 33.1797H76.8343V36.2531H66.4852V38.3856H76.2698V41.0826H66.4852V43.2152H77.0224V46.3513H62.5337V33.1797Z" fill="#EEEEEE"/>
<path d="M78.5278 37.7586C78.5278 33.9325 80.6604 32.9917 84.2982 32.9917H89.0651C94.7728 32.9917 95.5255 34.1834 95.5255 37.9467H91.5113V37.5704C91.5113 36.6296 90.8213 36.3787 89.6296 36.3787H85.2391C83.1065 36.3787 82.7302 37.3822 82.7302 39.013V40.3929C82.7302 42.2745 83.1065 43.0272 85.0509 43.0272H89.316C91.1349 43.0272 91.6367 42.839 91.6367 41.2083H95.6509V42.4C95.6509 44.5952 94.8355 46.3515 90.8213 46.3515H84.361C80.7231 46.3515 78.5906 45.4734 78.5906 41.5846L78.5278 37.7586Z" fill="#EEEEEE"/>
<path d="M97.7832 33.1797H101.797V40.7063C101.797 42.3371 102.425 43.027 104.055 43.027H108.07C109.7 43.027 110.328 42.3998 110.328 40.7063V33.1797H114.342V41.6471C114.342 44.9087 112.648 46.4767 108.948 46.4767H103.177C99.4767 46.4767 97.7832 44.9087 97.7832 41.6471V33.1797Z" fill="#EEEEEE"/>
<path d="M116.412 33.1797H128.517C131.59 33.1797 132.468 34.7477 132.468 37.0684V37.8838C132.468 39.64 132.092 40.6436 130.21 41.1454V41.2081C131.402 41.459 132.406 41.9608 132.406 44.0933V46.2886H128.392V44.7205C128.392 43.3406 128.015 42.9016 126.761 42.9016H120.426V46.3513H116.412V33.1797ZM120.426 39.64H127.074C128.141 39.64 128.58 39.201 128.58 38.2602V37.8211C128.58 36.6294 128.015 36.4412 126.761 36.4412H120.489L120.426 39.64Z" fill="#EEEEEE"/>
<path d="M139.117 33.1797H135.103V46.2886H139.117V33.1797Z" fill="#EEEEEE"/>
<path d="M140.811 33.1797H156.177V36.4412H150.532V46.2886H146.518V36.4412H140.811V33.1797Z" fill="#EEEEEE"/>
<path d="M161.885 33.1797H157.871V46.2886H161.885V33.1797Z" fill="#EEEEEE"/>
<path d="M164.52 33.1797H178.883V36.2531H168.534V38.3856H178.319V41.0826H168.534V43.2152H179.071V46.3513H164.457V33.1797H164.52Z" fill="#EEEEEE"/>
<path d="M181.078 42.0234H185.092C185.092 43.4033 185.657 43.5288 186.849 43.5288H191.741C192.556 43.5288 193.497 43.466 193.497 42.3998C193.497 41.2708 193.058 41.208 187.852 41.208C181.768 41.208 181.141 40.5181 181.141 37.2566C181.141 34.8731 181.392 33.0542 186.472 33.0542H192.117C196.759 33.0542 197.198 34.6222 197.198 36.943V37.382H193.183C193.183 36.4412 193.121 36.0021 191.239 36.0021H186.786C185.908 36.0021 185.28 36.3157 185.28 37.0057C185.28 38.1347 185.72 38.1974 190.047 38.1974C196.32 38.1974 197.762 38.5737 197.762 42.3998C197.762 45.9122 196.57 46.5394 191.239 46.5394H186.347C182.709 46.5394 181.204 45.8495 181.204 43.027L181.078 42.0234Z" fill="#EEEEEE"/>
<path d="M12.7325 49.9266L18.0639 46.8533L30.7337 39.5148V33.9325L13.1716 44.0935L7.84024 47.1669L2.50888 44.0935L0 42.5882V33.8698L5.33136 30.7964L30.7337 16.1195L36.0651 13.0462V19.1302L30.7337 22.2036L5.33136 36.9432V39.5148L7.90296 41.0201L30.7337 27.8485L36.0651 24.7751V42.5882L18.0012 53L12.7325 49.9266ZM0 10.4118L18.0012 0L23.3325 3.07337L18.0012 6.14675L5.33136 13.4852V19.1302L22.8935 8.96923L28.2249 5.89586L33.5562 8.96923L28.2249 12.0426L5.33136 25.2142L0 28.2249V10.4118Z" fill="url(#paint0_linear_928_3487)"/>
</g>
<defs>
<linearGradient id="paint0_linear_928_3487" x1="-0.389485" y1="0.574744" x2="48.8914" y2="34.097" gradientUnits="userSpaceOnUse">
<stop stop-color="#EA6913"/>
<stop offset="0.455" stop-color="#FEB801"/>
<stop offset="1" stop-color="#FFBC00"/>
</linearGradient>
<clipPath id="clip0_928_3487">
<rect width="197.574" height="53" fill="white"/>
</clipPath>
</defs>
</svg>
