<?xml version="1.0" encoding="utf-8"?>
<!-- Generator: Adobe Illustrator 26.3.1, SVG Export Plug-In . SVG Version: 6.00 Build 0)  -->
<svg version="1.1" id="Layer_1" xmlns="http://www.w3.org/2000/svg" xmlns:xlink="http://www.w3.org/1999/xlink" x="0px" y="0px"
	 viewBox="0 0 499.66 1080" style="enable-background:new 0 0 499.66 1080;" xml:space="preserve">
<style type="text/css">
	.st0{fill:;}
</style>
<g>
	<polygon class="st0" points="-120.28,671.55 -120.29,671.54 -120.29,671.53 	"/>
	<g>
		<path class="st0" d="M371.17,540.17c-76.9-0.03-153.8,0-230.69-0.04c-3.89,0-7.6,0.62-11.26,1.77
			c-15.75,4.96-26.17,21.6-23.63,37.7c2.72,17.24,16.87,29.82,33.78,29.84c38.94,0.05,77.89,0.02,116.83,0.02
			c38.8,0,77.61-0.03,116.41,0.05c4.06,0.01,7.86-0.9,11.52-2.35c15.92-6.34,24.93-22.18,21.93-38.3
			C402.91,551.87,388.79,540.18,371.17,540.17z"/>
		<path class="st0" d="M491.38,327.93c-28.57-15.96-62.2-13.25-87.89,7.21c-15.97,12.72-26.15,29.43-33.05,48.38
			c-4.81,13.19-7,27.09-10.86,40.53c-0.11,0.39-0.26,0.77-1.07,1.07c0.68-5.72,1.42-11.43,2.01-17.15
			c2.44-23.35,5.88-46.61,6.03-70.15c0.18-29.16-12.46-51.8-35.92-68.34c-23.75-16.75-50.57-22.66-79.02-17.69
			c-36.8,6.42-60.86,28.08-70.97,64.31c-4.56,16.35-7.19,33.14-10.03,49.87c-3.43,20.22-5.96,40.55-8.58,60.87
			c-0.03,0.2-0.32,0.37-0.87,0.98c-0.89-2.53-0.56-4.87-0.58-7.12c-0.1-15.3,0.02-30.59-0.26-45.89
			c-0.35-18.93-2.69-37.51-11.27-54.77c-10.78-21.68-28.32-35.13-51.32-41.77c-20.09-5.8-40.35-6.94-60.72-1.52
			c-13.57,3.61-24.9,11.15-35.13,20.54c-0.15,0.97-0.76,1.42-1.68,1.55c-0.07,2.12-0.19,4.24-0.19,6.36
			C0,439.89,0,574.59,0.01,709.29c0,1.98,0.13,3.96,0.2,5.93c1.02,0.22,1.34,0.7,0.59,1.58c0.13,0.57,0.25,1.13,0.38,1.7
			c2.5,3.65,3.02,8.05,4.52,12.07c5.2,13.92,10.99,27.47,20.63,39.11c8.95,10.8,20.07,17.86,33.89,19.91
			c18.16,2.69,35.58,0.6,50.87-10.69c12.87-9.51,21.03-22.63,27.37-36.99c2.16-4.88,3.87-9.96,6.17-15.97
			c0.74,4.66,1.75,8.39,1.86,12.15c0.27,9.94,2.11,19.64,3.81,29.37c0.17,0.96,0.07,1.97,0.09,2.95l0,0.01
			c2.31,2.88,2.12,6.61,3.24,9.9c5.97,17.55,14.23,33.51,31.68,42.14c22.13,10.94,44.04,9.83,63.3-7.47
			c15.72-14.12,26.82-31.5,36.18-50.19c8.3-16.58,14.74-33.91,19.93-51.64c3.72-12.71,6.36-25.73,9.51-38.61
			c0.23-0.94,0.66-1.83,1-2.74c0.16-3.05,0.15-6.15,2.99-9.25c-1.65,14.66-0.41,28.54,0.36,42.42c2.27,7.85,3.35,16.03,6.76,23.56
			c3.52,7.78,7.69,15.08,14.1,20.9c0.93,0.84,2,1.6,2.36,2.92l-0.05-0.01c5.29,2.25,9.79,5.94,15.45,7.67
			c23.05,7.02,43.42,3.02,61.16-13.66c5.05-4.75,8.97-10.47,13.97-15.22l-0.01,0.04c2.16-5.52,5.98-10.09,8.78-15.26
			c8.39-15.48,14.9-31.78,20.81-48.31c1.25-3.5,2.44-4.04,5.11-1.33c2.24,2.27,5.32,3.61,7.26,6.26c6.33,2.53,12.16,6.22,18.82,8
			c2.19,0.59,4.29,1.15,6.55,0.63c0-116.14,0-232.29,0-348.43C496.34,332.1,494.17,329.48,491.38,327.93z M384.13,607.15
			c-3.66,1.46-7.46,2.36-11.52,2.35c-38.8-0.08-77.61-0.05-116.41-0.05c-38.94,0-77.89,0.03-116.83-0.02
			c-16.91-0.02-31.05-12.59-33.78-29.84c-2.54-16.1,7.88-32.74,23.63-37.7c3.66-1.15,7.37-1.77,11.26-1.77
			c76.9,0.05,153.8,0.01,230.69,0.04c17.62,0.01,31.74,11.7,34.89,28.68C409.06,584.97,400.05,600.8,384.13,607.15z"/>
	</g>
</g>
</svg>
