<svg width="22" height="20" viewBox="0 0 22 20" fill="none" xmlns="http://www.w3.org/2000/svg">
<path fill-rule="evenodd" clip-rule="evenodd" d="M7.38263 0.951212C7.83138 0.851491 8.39175 0.803711 8.9433 0.803711H12.744C13.2955 0.803711 13.8559 0.851491 14.3046 0.951212C14.5221 0.999536 14.7621 1.07036 14.9724 1.18321C15.0769 1.23926 15.2214 1.33052 15.3509 1.47447C15.4853 1.62388 15.6443 1.8795 15.6443 2.22601V4.60449H18.4448C20.0466 4.60449 21.3451 5.90302 21.3451 7.50483V17.0065C21.3451 18.6083 20.0466 19.9068 18.4448 19.9068H3.24213C1.64032 19.9068 0.341797 18.6083 0.341797 17.0065V7.50483C0.341797 5.90302 1.64032 4.60449 3.24213 4.60449H6.04297V2.22601C6.04297 1.8795 6.20195 1.62388 6.33635 1.47447C6.46583 1.33052 6.61038 1.23926 6.71487 1.18321C6.92522 1.07036 7.16517 0.999536 7.38263 0.951212ZM13.6443 2.86276V4.60449H8.04297V2.86276C8.28954 2.82669 8.60245 2.80371 8.9433 2.80371H12.744C13.0848 2.80371 13.3977 2.82669 13.6443 2.86276ZM3.24213 6.60449C2.74489 6.60449 2.3418 7.00759 2.3418 7.50483V17.0065C2.3418 17.5037 2.74489 17.9068 3.24213 17.9068H18.4448C18.942 17.9068 19.3451 17.5037 19.3451 17.0065V7.50483C19.3451 7.00759 18.942 6.60449 18.4448 6.60449H3.24213ZM11.076 9.5562C11.0324 9.46363 10.9423 9.40503 10.8437 9.40503C10.745 9.40503 10.655 9.46363 10.6113 9.5562L9.8708 11.1263L8.21483 11.3796C8.11725 11.3946 8.03622 11.4662 8.00581 11.5643C7.97539 11.6625 8.00085 11.7703 8.0715 11.8423L9.26954 13.0636L8.9868 14.789C8.97012 14.8907 9.01009 14.9936 9.0899 15.0542C9.16971 15.1149 9.27551 15.1229 9.36282 15.0749L10.8437 14.2598L12.3245 15.0749C12.4118 15.1229 12.5176 15.1149 12.5974 15.0542C12.6772 14.9936 12.7172 14.8907 12.7005 14.789L12.4178 13.0636L13.6158 11.8423C13.6865 11.7703 13.7119 11.6625 13.6815 11.5643C13.6511 11.4662 13.5701 11.3946 13.4725 11.3796L11.8165 11.1263L11.076 9.5562Z" fill="#FBFBFB"/>
</svg>
