<svg width="23" height="24" viewBox="0 0 23 24" fill="none" xmlns="http://www.w3.org/2000/svg">
<path fill-rule="evenodd" clip-rule="evenodd" d="M15.71 3.67925C15.7142 6.52446 15.7184 9.36968 15.6898 12.2149C15.6869 12.6002 15.4869 13.062 15.2251 13.3502C14.5685 14.0741 13.8788 14.7679 13.1344 15.5168L13.1344 15.5168L13.1344 15.5168C12.8384 15.8145 12.5338 16.1209 12.2192 16.4414V1.28548C12.2192 1.10313 12.3663 0.953125 12.5516 0.953125H15.3781C15.5604 0.953125 15.7075 1.10018 15.7075 1.28254V1.67077C15.708 2.34026 15.709 3.00975 15.71 3.67925ZM22.5104 10.5121C22.728 10.5209 22.8662 10.7651 22.8692 10.8856C22.896 12.0368 22.8879 13.1891 22.8798 14.3411C22.8754 14.9581 22.8711 15.575 22.8721 16.1915C22.8309 16.2136 22.7964 16.2364 22.7618 16.2592C22.7273 16.282 22.6927 16.3048 22.6515 16.3268L22.6511 16.3263L22.6507 16.3257L22.65 16.3249C22.0887 15.6314 21.5274 14.9378 20.8574 14.1062L18.2298 16.8106L18.228 16.8124C16.1718 18.9288 14.1859 20.9727 12.1839 23.0327C11.357 22.3106 10.5761 21.6283 9.80971 20.9586C9.17753 20.4063 8.5552 19.8625 7.92506 19.3121C7.52665 19.6989 7.13069 20.0784 6.73815 20.4546L6.73813 20.4546C5.83824 21.317 4.95638 22.1621 4.10447 23.0386C3.60153 23.5562 3.09565 23.7298 2.37212 23.7474C1.72212 23.7621 1.07506 23.7621 0.442705 23.7356C0.413293 23.6592 0.386822 23.5856 0.360352 23.5121C2.84271 21.0915 5.32506 18.668 7.86918 16.1827C8.72107 16.905 9.54047 17.6009 10.3274 18.2692L10.328 18.2697L10.3298 18.2713C10.8815 18.7398 11.4171 19.1947 11.9368 19.6356C14.2839 17.3407 16.5995 15.0801 19.1538 12.5865L19.2692 12.4739L18.5756 11.9666C18.0771 11.602 17.5805 11.2387 17.0839 10.8768C17.1162 10.8195 17.1486 10.757 17.1809 10.6945C17.2133 10.632 17.2456 10.5695 17.278 10.5121H19.3751C19.6869 10.5121 20.0249 10.5081 20.3722 10.504H20.3723H20.3723H20.3724C21.0963 10.4954 21.8604 10.4863 22.5104 10.5121ZM3.6106 15.6639C3.62096 14.6458 3.62432 14.3164 3.62461 13.987C3.62475 13.8295 3.62419 13.672 3.62337 13.4391C3.62203 13.0633 3.62 12.4912 3.6191 11.4061V11.0179C3.6191 10.8355 3.47204 10.6885 3.28968 10.6885H0.463212C0.277918 10.6885 0.130859 10.8385 0.130859 11.0208V20.7944C0.4453 20.4741 0.749754 20.1678 1.04557 19.8702L1.04599 19.8698C1.7904 19.121 2.48014 18.4271 3.13674 17.7032C3.39851 17.4149 3.59851 16.9532 3.60145 16.5679C3.60498 16.2163 3.60801 15.9185 3.6106 15.6639ZM9.59873 5.91781V14.7355C9.06121 14.3075 8.57223 13.9148 8.05344 13.4982C7.97327 13.4338 7.89238 13.3689 7.8105 13.3031C7.6963 13.4034 7.58255 13.5033 7.46798 13.6039C7.07206 13.9516 6.66635 14.3079 6.19873 14.7208V5.91781C6.19873 5.83546 6.26344 5.77075 6.34579 5.77075H9.45167C9.53403 5.77075 9.59873 5.83546 9.59873 5.91781Z" fill="#FBFBFB"/>
</svg>
