<svg width="198" height="53" viewBox="0 0 198 53" fill="none" xmlns="http://www.w3.org/2000/svg">
<g clip-path="url(#clip0_993_4776)">
<path d="M42.5884 13.8611C42.5884 7.21258 46.289 5.64453 52.5612 5.64453H60.715C70.6251 5.64453 71.8795 7.77708 71.8168 14.1747H64.8547V13.5475C64.8547 11.9167 63.6629 11.4149 61.5931 11.4149H54.0665C50.4286 11.4149 49.676 13.1712 49.676 15.9936V18.5025C49.676 21.7641 50.3659 23.0812 53.6902 23.0812H61.0913C64.2274 23.0812 65.1683 22.7676 65.1683 19.9451H72.1304V22.0777C72.1304 25.9037 70.7505 28.8516 63.7884 28.8516H52.6239C46.3517 28.8516 42.6511 27.2836 42.6511 20.6351L42.5884 13.8611Z" fill="#061936"/>
<path d="M75.2661 5.95898H82.2282V14.0501H96.8424V5.95898H103.805V28.6016H96.8424V20.0087H82.2282V28.6016H75.2661V5.95898Z" fill="#061936"/>
<path d="M118.105 5.95898H127.137L139.619 28.6016H131.904L129.772 24.5874H115.722L113.715 28.6016H105.875L118.105 5.95898ZM118.231 19.7578H127.137L122.621 11.2276L118.231 19.7578Z" fill="#061936"/>
<path d="M141.187 21.1996H148.149C148.212 23.583 149.152 23.7712 151.16 23.7712H159.69C161.132 23.7712 162.638 23.6457 162.638 21.8268C162.638 19.8824 161.822 19.6942 152.853 19.6942C142.378 19.6942 141.187 18.4398 141.187 12.9203C141.187 8.84335 141.563 5.64453 150.344 5.64453H160.066C168.094 5.64453 168.847 8.34157 168.847 12.3558V13.0457H161.885C161.885 11.4149 161.697 10.725 158.498 10.725H150.783C149.215 10.725 148.149 11.2268 148.149 12.4812C148.149 14.4256 148.964 14.4883 156.428 14.4883C167.216 14.4256 169.725 15.1155 169.725 21.7013C169.725 27.7854 167.655 28.8516 158.435 28.8516H149.968C143.633 28.8516 141.124 27.6599 141.124 22.7676L141.187 21.1996Z" fill="#061936"/>
<path d="M172.36 5.95898H197.135V11.2276H179.322V14.8655H196.194V19.5696H179.322V23.2075H197.574V28.6643H172.36V5.95898Z" fill="#061936"/>
<path d="M43.7173 42.0239H47.7315C47.7315 43.4038 48.296 43.5292 49.4877 43.5292H54.4427C55.2581 43.5292 56.1989 43.4665 56.1989 42.4002C56.1989 41.2713 55.7599 41.2085 50.554 41.2085C44.4699 41.2085 43.8427 40.5186 43.8427 37.2571C43.8427 34.8736 44.0936 33.0547 49.1741 33.0547H54.8191C59.4605 33.0547 59.8995 34.6227 59.8995 36.9434V37.3825H55.8226C55.8226 36.4417 55.7599 36.0026 53.8782 36.0026H49.425C48.5469 36.0026 47.9197 36.3162 47.9197 37.0062C47.9197 38.1352 48.3587 38.1979 52.6865 38.1979C58.9587 38.1979 60.4013 38.5742 60.4013 42.4002C60.4013 45.9127 59.2096 46.5399 53.8782 46.5399H48.9232C45.2853 46.5399 43.78 45.85 43.78 43.0275V42.0239H43.7173Z" fill="#061936"/>
<path d="M62.5337 33.1797H76.8343V36.2531H66.4852V38.3856H76.2698V41.0826H66.4852V43.2152H77.0224V46.3513H62.5337V33.1797Z" fill="#061936"/>
<path d="M78.5278 37.7591C78.5278 33.933 80.6604 32.9922 84.2982 32.9922H89.0651C94.7728 32.9922 95.5255 34.1839 95.5255 37.9472H91.5113V37.5709C91.5113 36.6301 90.8213 36.3792 89.6296 36.3792H85.2391C83.1065 36.3792 82.7302 37.3827 82.7302 39.0135V40.3934C82.7302 42.275 83.1065 43.0277 85.0509 43.0277H89.316C91.1349 43.0277 91.6367 42.8395 91.6367 41.2088H95.6509V42.4005C95.6509 44.5957 94.8355 46.352 90.8213 46.352H84.361C80.7231 46.352 78.5906 45.4738 78.5906 41.5851L78.5278 37.7591Z" fill="#061936"/>
<path d="M97.7832 33.1797H101.797V40.7063C101.797 42.3371 102.425 43.027 104.055 43.027H108.07C109.7 43.027 110.328 42.3998 110.328 40.7063V33.1797H114.342V41.6471C114.342 44.9087 112.648 46.4767 108.948 46.4767H103.177C99.4767 46.4767 97.7832 44.9087 97.7832 41.6471V33.1797Z" fill="#061936"/>
<path d="M116.412 33.1797H128.517C131.59 33.1797 132.468 34.7477 132.468 37.0684V37.8838C132.468 39.64 132.092 40.6436 130.21 41.1454V41.2081C131.402 41.459 132.406 41.9608 132.406 44.0933V46.2886H128.392V44.7205C128.392 43.3406 128.015 42.9016 126.761 42.9016H120.426V46.3513H116.412V33.1797ZM120.426 39.64H127.074C128.141 39.64 128.58 39.201 128.58 38.2602V37.8211C128.58 36.6294 128.015 36.4412 126.761 36.4412H120.489L120.426 39.64Z" fill="#061936"/>
<path d="M139.117 33.1797H135.103V46.2886H139.117V33.1797Z" fill="#061936"/>
<path d="M140.811 33.1797H156.177V36.4412H150.532V46.2886H146.518V36.4412H140.811V33.1797Z" fill="#061936"/>
<path d="M161.885 33.1797H157.871V46.2886H161.885V33.1797Z" fill="#061936"/>
<path d="M164.52 33.1797H178.883V36.2531H168.534V38.3856H178.319V41.0826H168.534V43.2152H179.071V46.3513H164.457V33.1797H164.52Z" fill="#061936"/>
<path d="M181.078 42.0239H185.092C185.092 43.4038 185.657 43.5292 186.849 43.5292H191.741C192.556 43.5292 193.497 43.4665 193.497 42.4002C193.497 41.2713 193.058 41.2085 187.852 41.2085C181.768 41.2085 181.141 40.5186 181.141 37.2571C181.141 34.8736 181.392 33.0547 186.472 33.0547H192.117C196.759 33.0547 197.198 34.6227 197.198 36.9434V37.3825H193.183C193.183 36.4417 193.121 36.0026 191.239 36.0026H186.786C185.908 36.0026 185.28 36.3162 185.28 37.0062C185.28 38.1352 185.72 38.1979 190.047 38.1979C196.32 38.1979 197.762 38.5742 197.762 42.4002C197.762 45.9127 196.57 46.5399 191.239 46.5399H186.347C182.709 46.5399 181.204 45.85 181.204 43.0275L181.078 42.0239Z" fill="#061936"/>
<path d="M12.7325 49.9266L18.0639 46.8533L30.7337 39.5148V33.9325L13.1716 44.0935L7.84024 47.1669L2.50888 44.0935L0 42.5882V33.8698L5.33136 30.7964L30.7337 16.1195L36.0651 13.0462V19.1302L30.7337 22.2036L5.33136 36.9432V39.5148L7.90296 41.0201L30.7337 27.8485L36.0651 24.7751V42.5882L18.0012 53L12.7325 49.9266ZM0 10.4118L18.0012 0L23.3325 3.07337L18.0012 6.14675L5.33136 13.4852V19.1302L22.8935 8.96923L28.2249 5.89586L33.5562 8.96923L28.2249 12.0426L5.33136 25.2142L0 28.2249V10.4118Z" fill="url(#paint0_linear_993_4776)"/>
</g>
<defs>
<linearGradient id="paint0_linear_993_4776" x1="-0.389485" y1="0.574744" x2="48.8914" y2="34.097" gradientUnits="userSpaceOnUse">
<stop stop-color="#EA6913"/>
<stop offset="0.455" stop-color="#FEB801"/>
<stop offset="1" stop-color="#FFBC00"/>
</linearGradient>
<clipPath id="clip0_993_4776">
<rect width="197.574" height="53" fill="white"/>
</clipPath>
</defs>
</svg>
